<?xml version="1.0" encoding="iso-8859-1"?>
<!-- Uploaded to: SVG Repo, www.svgrepo.com, Generator: SVG Repo Mixer Tools -->
<svg fill="#000000" height="24px" width="24px" version="1.1" id="Capa_1" xmlns="http://www.w3.org/2000/svg" xmlns:xlink="http://www.w3.org/1999/xlink" 
	 viewBox="0 0 512 512" xml:space="preserve">
<g>
	<g>
		<path d="M504.89,52.696l-5.701-5.701l5.701-5.701c9.447-9.447,9.447-24.762,0-34.209c-9.445-9.447-24.762-9.447-34.209,0
			l-5.702,5.702l-5.704-5.702c-9.447-9.445-24.764-9.445-34.209,0c-9.447,9.447-9.445,24.764,0.002,34.209l5.702,5.702
			l-68.417,68.417l-17.104-17.106C329.787,82.85,310.061,74.68,288.2,74.68c-20.176,0-41.616,6.726-63.728,19.992l-57.019,34.211
			c-6.388,3.832-10.653,10.394-11.563,17.786c-0.91,7.392,1.637,14.793,6.904,20.06c15.719,15.72,15.719,41.297-0.002,57.016
			c-7.613,7.615-17.738,11.808-28.507,11.808s-20.894-4.195-28.507-11.808c-4.536-4.536-10.689-7.086-17.106-7.086
			c-6.415,0-12.569,2.55-17.104,7.086l-45.611,45.611c-34.584,34.584-34.585,90.856-0.002,125.438l28.509,28.509l-5.702,5.704
			c-9.445,9.447-9.444,24.764,0.005,34.209c4.724,4.722,10.913,7.083,17.102,7.083c6.191,0,12.384-2.363,17.107-7.088l5.698-5.701
			l28.507,28.507c16.754,16.752,39.028,25.978,62.72,25.978c23.692,0,45.964-9.226,62.718-25.978l45.611-45.611
			c4.538-4.536,7.086-10.689,7.086-17.106c0-6.415-2.55-12.568-7.086-17.104c-15.719-15.719-15.719-41.297-0.002-57.016
			c7.615-7.615,17.739-11.808,28.51-11.808c10.769,0,20.895,4.193,28.512,11.808c5.269,5.267,12.666,7.807,20.06,6.902
			c7.392-0.911,13.954-5.177,17.786-11.563l34.209-57.016c27.917-46.527,26.591-90.548-3.637-120.774l-17.106-17.106l68.419-68.419
			l5.702,5.702c4.724,4.722,10.915,7.084,17.106,7.084s12.382-2.363,17.106-7.086C514.339,77.46,514.337,62.143,504.89,52.696z
			 M88.674,389.098l-28.509-28.509c-7.615-7.615-11.808-17.739-11.808-28.509c-0.002-10.773,4.193-20.897,11.808-28.512
			l30.855-30.854c13.071,7.326,27.868,11.223,43.265,11.223c15.393,0,30.176-3.917,43.245-11.24l13.772,13.771L88.674,389.098z
			 M239.283,420.935l-30.874,30.876c-7.615,7.615-17.739,11.808-28.509,11.808c-10.769,0-20.895-4.195-28.51-11.81l-28.507-28.505
			L225.51,320.676l13.785,13.785C224.362,361.238,224.346,394.16,239.283,420.935z M225.511,252.255l-13.777-13.777
			c13.993-25.085,14.88-55.571,2.654-81.34l34.975-20.981c14.282-8.568,27.712-13.098,38.836-13.098
			c9.128,0,16.385,3.006,22.839,9.458l17.104,17.106L225.511,252.255z M375.817,262.615l-20.963,34.938
			c-11.756-5.601-24.711-8.557-38.119-8.557c-15.393,0-30.176,3.917-43.247,11.239l-13.771-13.769l102.63-102.632l17.107,17.107
			C396.692,218.177,386.991,243.994,375.817,262.615z"/>
	</g>
</g>
</svg>